# 3ds Max Wavefront OBJ Exporter v0.97b - (c)2007 guruware
# File Created: 10.02.2018 11:47:44

mtllib 101372.mtl

#
# object Cylinder001
#

v  -60.3014 0.0000 -11.4825
v  -64.2704 0.0000 -21.0645
v  -64.2704 159.1479 -21.0645
v  -60.3014 159.1479 -11.4825
v  -73.8524 0.0000 -25.0335
v  -73.8524 159.1479 -25.0335
v  -83.4344 0.0000 -21.0645
v  -83.4344 159.1479 -21.0645
v  -87.4034 0.0000 -11.4825
v  -87.4034 159.1479 -11.4825
v  -83.4344 0.0000 -1.9005
v  -83.4344 159.1479 -1.9005
v  -73.8524 0.0000 2.0685
v  -73.8524 159.1479 2.0685
v  -64.2704 0.0000 -1.9005
v  -64.2704 159.1479 -1.9005
v  -65.7583 167.7089 -19.5766
v  -62.4057 167.7089 -11.4825
v  -73.8524 167.7089 -22.9293
v  -81.9465 167.7089 -19.5766
v  -85.2992 167.7089 -11.4825
v  -81.9465 167.7089 -3.3884
v  -73.8524 167.7089 -0.0357
v  -65.7583 167.7089 -3.3884
v  -62.3113 -8.4576 -11.4825
v  -65.6916 -8.4576 -19.6433
v  -73.8524 -8.4576 -23.0237
v  -82.0132 -8.4576 -19.6433
v  -85.3936 -8.4576 -11.4825
v  -82.0132 -8.4576 -3.3217
v  -73.8524 -8.4576 0.0586
v  -65.6916 -8.4576 -3.3217
v  -73.8524 167.7089 -11.4825
v  -73.8524 -8.4576 -11.4825
# 34 vertices

vn 0.9936 -0.1133 0.0000
vn 0.7025 -0.1133 -0.7026
vn 0.7022 0.1169 -0.7023
vn 0.9931 0.1169 0.0000
vn 0.0000 -0.1132 -0.9936
vn -0.0000 0.1169 -0.9931
vn -0.7026 -0.1132 -0.7026
vn -0.7023 0.1169 -0.7023
vn -0.9936 -0.1132 0.0000
vn -0.9931 0.1169 0.0000
vn -0.7026 -0.1132 0.7026
vn -0.7023 0.1169 0.7023
vn -0.0000 -0.1132 0.9936
vn -0.0000 0.1169 0.9931
vn 0.7026 -0.1132 0.7026
vn 0.7023 0.1169 0.7023
vn 0.4920 0.7183 -0.4920
vn 0.6957 0.7183 -0.0000
vn -0.0000 0.7183 -0.6957
vn -0.4920 0.7183 -0.4920
vn -0.6957 0.7183 0.0000
vn -0.4920 0.7183 0.4920
vn -0.0000 0.7183 0.6957
vn 0.4920 0.7183 0.4920
vn 0.6985 -0.7156 -0.0000
vn 0.4939 -0.7156 -0.4939
vn 0.0000 -0.7156 -0.6985
vn -0.4939 -0.7156 -0.4939
vn -0.6985 -0.7156 -0.0000
vn -0.4939 -0.7156 0.4939
vn -0.0000 -0.7156 0.6985
vn 0.4939 -0.7156 0.4939
vn 0.0000 1.0000 -0.0000
vn 0.0000 -1.0000 -0.0000
# 34 vertex normals

vt 0.7500 0.0000 1.0000
vt 0.8750 0.0000 1.0000
vt 0.8750 1.0000 1.0000
vt 0.7500 1.0000 1.0000
vt -0.1250 0.0000 1.0000
vt 0.0000 0.0000 1.0000
vt 0.0000 1.0000 1.0000
vt -0.1250 1.0000 1.0000
vt 0.1250 0.0000 1.0000
vt 0.1250 1.0000 1.0000
vt 0.2500 0.0000 1.0000
vt 0.2500 1.0000 1.0000
vt 0.3750 0.0000 1.0000
vt 0.3750 1.0000 1.0000
vt 0.5000 0.0000 1.0000
vt 0.5000 1.0000 1.0000
vt 0.6250 0.0000 1.0000
vt 0.6250 1.0000 1.0000
# 18 texture coords

o Cylinder001
g Cylinder001
usemtl wire_176026026
s 8
f 1/1/1 2/2/2 3/3/3 4/4/4 
f 2/5/2 5/6/5 6/7/6 3/8/3 
f 5/6/5 7/9/7 8/10/8 6/7/6 
f 7/9/7 9/11/9 10/12/10 8/10/8 
f 9/11/9 11/13/11 12/14/12 10/12/10 
f 11/13/11 13/15/13 14/16/14 12/14/12 
f 13/15/13 15/17/15 16/18/16 14/16/14 
f 15/17/15 1/1/1 4/4/4 16/18/16 
s off
f 4/4/4 3/3/3 17/3/17 18/4/18 
f 3/8/3 6/7/6 19/7/19 17/8/17 
f 6/7/6 8/10/8 20/10/20 19/7/19 
f 8/10/8 10/12/10 21/12/21 20/10/20 
f 10/12/10 12/14/12 22/14/22 21/12/21 
f 12/14/12 14/16/14 23/16/23 22/14/22 
f 14/16/14 16/18/16 24/18/24 23/16/23 
f 16/18/16 4/4/4 18/4/18 24/18/24 
f 2/2/2 1/1/1 25/1/25 26/2/26 
f 5/6/5 2/5/2 26/5/26 27/6/27 
f 7/9/7 5/6/5 27/6/27 28/9/28 
f 9/11/9 7/9/7 28/9/28 29/11/29 
f 11/13/11 9/11/9 29/11/29 30/13/30 
f 13/15/13 11/13/11 30/13/30 31/15/31 
f 15/17/15 13/15/13 31/15/31 32/17/32 
f 1/1/1 15/17/15 32/17/32 25/1/25 
f 17/3/17 19/7/19 33/12/33 18/4/18 
f 19/7/19 20/10/20 21/12/21 33/12/33 
f 21/12/21 22/14/22 23/16/23 33/12/33 
f 33/12/33 23/16/23 24/18/24 18/4/18 
f 25/1/25 34/15/34 27/6/27 26/5/26 
f 25/1/25 32/17/32 31/15/31 34/15/34 
f 31/15/31 30/13/30 29/11/29 34/15/34 
f 34/15/34 29/11/29 28/9/28 27/6/27 
# 32 polygons

