# 3ds Max Wavefront OBJ Exporter v0.97b - (c)2007 guruware
# File Created: 10.02.2018 11:49:15

mtllib 101405.mtl

#
# object Cylinder001
#

v  -835.7430 0.0000 753.7272
v  -844.6365 0.0000 720.5365
v  -844.6365 149.8471 720.5365
v  -835.7430 149.8471 753.7272
v  -868.9338 0.0000 696.2392
v  -868.9338 149.8471 696.2392
v  -902.1245 0.0000 687.3458
v  -902.1245 149.8471 687.3458
v  -935.3152 0.0000 696.2392
v  -935.3152 149.8471 696.2392
v  -959.6125 0.0000 720.5365
v  -959.6125 149.8471 720.5365
v  -968.5060 0.0000 753.7272
v  -968.5060 149.8471 753.7272
v  -959.6125 0.0000 786.9180
v  -959.6125 149.8471 786.9180
v  -935.3152 0.0000 811.2152
v  -935.3152 149.8471 811.2152
v  -902.1246 0.0000 820.1087
v  -902.1246 149.8471 820.1087
v  -868.9338 0.0000 811.2153
v  -868.9338 149.8471 811.2153
v  -844.6365 0.0000 786.9180
v  -844.6365 149.8471 786.9180
v  -846.1375 0.0000 753.7272
v  -853.6383 0.0000 725.7337
v  -874.1310 0.0000 705.2410
v  -902.1245 0.0000 697.7402
v  -930.1180 0.0000 705.2410
v  -950.6107 0.0000 725.7337
v  -958.1116 0.0000 753.7272
v  -950.6107 0.0000 781.7208
v  -930.1180 0.0000 802.2134
v  -902.1245 0.0000 809.7143
v  -874.1310 0.0000 802.2134
v  -853.6383 0.0000 781.7208
v  -853.6383 149.8471 725.7337
v  -846.1375 149.8471 753.7272
v  -874.1310 149.8471 705.2410
v  -902.1245 149.8471 697.7402
v  -930.1180 149.8471 705.2410
v  -950.6107 149.8471 725.7337
v  -958.1116 149.8471 753.7272
v  -950.6107 149.8471 781.7208
v  -930.1180 149.8471 802.2134
v  -902.1245 149.8471 809.7143
v  -874.1310 149.8471 802.2134
v  -853.6383 149.8471 781.7208
# 48 vertices

vn 0.7572 -0.6532 0.0000
vn 0.6557 -0.6533 -0.3785
vn 0.6557 0.6533 -0.3785
vn 0.7572 0.6532 0.0000
vn 0.3785 -0.6533 -0.6557
vn 0.3785 0.6533 -0.6557
vn -0.0000 -0.6532 -0.7572
vn -0.0000 0.6532 -0.7572
vn -0.3785 -0.6533 -0.6557
vn -0.3785 0.6533 -0.6557
vn -0.6557 -0.6533 -0.3785
vn -0.6557 0.6533 -0.3785
vn -0.7572 -0.6532 -0.0000
vn -0.7572 0.6532 -0.0000
vn -0.6557 -0.6533 0.3785
vn -0.6557 0.6533 0.3785
vn -0.3785 -0.6533 0.6557
vn -0.3785 0.6533 0.6557
vn 0.0000 -0.6533 0.7571
vn 0.0000 0.6533 0.7571
vn 0.3786 -0.6532 0.6557
vn 0.3786 0.6532 0.6557
vn 0.6557 -0.6532 0.3786
vn 0.6557 0.6532 0.3786
vn -0.6377 -0.7703 -0.0000
vn -0.5523 -0.7703 0.3189
vn -0.3189 -0.7703 0.5523
vn 0.0000 -0.7703 0.6377
vn 0.3188 -0.7703 0.5523
vn 0.5523 -0.7703 0.3188
vn 0.6377 -0.7703 0.0000
vn 0.5523 -0.7703 -0.3189
vn 0.3189 -0.7703 -0.5523
vn 0.0000 -0.7703 -0.6377
vn -0.3188 -0.7703 -0.5523
vn -0.5523 -0.7703 -0.3188
vn -0.5523 0.7703 0.3189
vn -0.6377 0.7703 -0.0000
vn -0.3189 0.7703 0.5523
vn 0.0000 0.7703 0.6377
vn 0.3188 0.7703 0.5523
vn 0.5523 0.7703 0.3188
vn 0.6377 0.7703 0.0000
vn 0.5523 0.7703 -0.3189
vn 0.3189 0.7703 -0.5523
vn 0.0000 0.7703 -0.6377
vn -0.3188 0.7703 -0.5523
vn -0.5523 0.7703 -0.3188
# 48 vertex normals

vt 0.7500 0.0000 1.0000
vt 0.8333 0.0000 1.0000
vt 0.8333 1.0000 1.0000
vt 0.7500 1.0000 1.0000
vt 0.9167 0.0000 1.0000
vt 0.9167 1.0000 1.0000
vt -0.0833 0.0000 1.0000
vt 0.0000 0.0000 1.0000
vt 0.0000 1.0000 1.0000
vt -0.0833 1.0000 1.0000
vt 0.0833 0.0000 1.0000
vt 0.0833 1.0000 1.0000
vt 0.1667 0.0000 1.0000
vt 0.1667 1.0000 1.0000
vt 0.2500 0.0000 1.0000
vt 0.2500 1.0000 1.0000
vt 0.3333 0.0000 1.0000
vt 0.3333 1.0000 1.0000
vt 0.4167 0.0000 1.0000
vt 0.4167 1.0000 1.0000
vt 0.5000 0.0000 1.0000
vt 0.5000 1.0000 1.0000
vt 0.5833 0.0000 1.0000
vt 0.5833 1.0000 1.0000
vt 0.6667 0.0000 1.0000
vt 0.6667 1.0000 1.0000
# 26 texture coords

o Cylinder001
g Cylinder001
usemtl wire_225087143
s 8
f 1/1/1 2/2/2 3/3/3 4/4/4 
f 2/2/2 5/5/5 6/6/6 3/3/3 
f 5/7/5 7/8/7 8/9/8 6/10/6 
f 7/8/7 9/11/9 10/12/10 8/9/8 
f 9/11/9 11/13/11 12/14/12 10/12/10 
f 11/13/11 13/15/13 14/16/14 12/14/12 
f 13/15/13 15/17/15 16/18/16 14/16/14 
f 15/17/15 17/19/17 18/20/18 16/18/16 
f 17/19/17 19/21/19 20/22/20 18/20/18 
f 19/21/19 21/23/21 22/24/22 20/22/20 
f 21/23/21 23/25/23 24/26/24 22/24/22 
f 23/25/23 1/1/1 4/4/4 24/26/24 
s off
f 2/2/2 1/1/1 25/1/25 26/2/26 
f 5/5/5 2/2/2 26/2/26 27/5/27 
f 7/8/7 5/7/5 27/7/27 28/8/28 
f 9/11/9 7/8/7 28/8/28 29/11/29 
f 11/13/11 9/11/9 29/11/29 30/13/30 
f 13/15/13 11/13/11 30/13/30 31/15/31 
f 15/17/15 13/15/13 31/15/31 32/17/32 
f 17/19/17 15/17/15 32/17/32 33/19/33 
f 19/21/19 17/19/17 33/19/33 34/21/34 
f 21/23/21 19/21/19 34/21/34 35/23/35 
f 23/25/23 21/23/21 35/23/35 36/25/36 
f 1/1/1 23/25/23 36/25/36 25/1/25 
f 4/4/4 3/3/3 37/3/37 38/4/38 
f 3/3/3 6/6/6 39/6/39 37/3/37 
f 6/10/6 8/9/8 40/9/40 39/10/39 
f 8/9/8 10/12/10 41/12/41 40/9/40 
f 10/12/10 12/14/12 42/14/42 41/12/41 
f 12/14/12 14/16/14 43/16/43 42/14/42 
f 14/16/14 16/18/16 44/18/44 43/16/43 
f 16/18/16 18/20/18 45/20/45 44/18/44 
f 18/20/18 20/22/20 46/22/46 45/20/45 
f 20/22/20 22/24/22 47/24/47 46/22/46 
f 22/24/22 24/26/24 48/26/48 47/24/47 
f 24/26/24 4/4/4 38/4/38 48/26/48 
s 1
f 37/23/37 39/25/39 27/1/27 26/10/26 
s 2
f 38/21/38 37/23/37 26/10/26 25/7/25 
s 1
f 48/18/48 38/21/38 25/7/25 36/19/36 
s 2
f 47/16/47 48/18/48 36/19/36 35/17/35 
s 1
f 46/14/46 47/16/47 35/17/35 34/15/34 
s 2
f 45/12/45 46/14/46 34/15/34 33/13/33 
s 1
f 44/10/44 45/12/45 33/13/33 32/11/32 
s 2
f 43/9/43 44/10/44 32/11/32 31/8/31 
s 1
f 42/6/42 43/9/43 31/8/31 30/7/30 
s 2
f 41/4/41 42/6/42 30/7/30 29/5/29 
s 1
f 40/3/40 41/4/41 29/5/29 28/2/28 
s 2
f 39/25/39 40/3/40 28/2/28 27/1/27 
# 48 polygons

