# 3ds Max Wavefront OBJ Exporter v0.97b - (c)2007 guruware
# File Created: 10.02.2018 11:57:30

mtllib 102282.mtl

#
# object Cylinder001
#

v  -6212.4551 -105.0909 -5754.7124
v  -6183.7754 -105.0909 -5769.3569
v  -6183.7754 14.3592 -5769.3569
v  -6212.4551 14.3621 -5754.7124
v  -6169.1309 -105.0909 -5804.7124
v  -6169.1309 14.3592 -5804.7124
v  -6183.7754 142.6490 -5769.3569
v  -6212.4551 142.6549 -5754.7124
v  -6169.1309 142.6490 -5804.7124
v  -6183.7754 155.9379 -5769.3569
v  -6212.4551 155.9454 -5754.7124
v  -6169.1309 155.9379 -5804.7124
v  -6183.7754 244.9091 -5769.3569
v  -6212.4551 244.9032 -5754.7124
v  -6169.1309 244.9091 -5804.7124
v  -6148.5093 152.5792 -5804.7124
v  -6148.5093 155.9379 -5804.7124
v  -6148.5093 244.9091 -5804.7124
v  -6183.7754 251.4836 -5769.3569
v  -6216.3301 251.2817 -5754.4224
v  -6169.1309 251.4836 -5804.7124
v  -6225.8066 -105.0909 -5754.7124
v  -6225.8066 14.3621 -5754.7124
v  -6254.4863 14.3592 -5769.3569
v  -6254.4863 -105.0909 -5769.3569
v  -6269.1309 14.3592 -5804.7124
v  -6269.1309 -105.0909 -5804.7124
v  -6225.8066 142.6549 -5754.7124
v  -6254.4863 142.6490 -5769.3569
v  -6269.1309 142.6490 -5804.7124
v  -6225.8066 155.9454 -5754.7124
v  -6254.4863 155.9379 -5769.3569
v  -6269.1309 155.9379 -5804.7124
v  -6225.8066 244.9032 -5754.1606
v  -6254.4863 244.9091 -5769.3569
v  -6269.1309 244.9091 -5804.7124
v  -6289.7070 155.9379 -5804.7124
v  -6289.7070 152.5792 -5804.7124
v  -6289.7070 244.9091 -5804.7124
v  -6221.2725 251.2817 -5754.0571
v  -6254.4863 251.4836 -5769.3569
v  -6269.1309 251.4836 -5804.7124
v  -6212.4551 -105.0909 -5859.7734
v  -6212.4551 14.3594 -5859.7734
v  -6183.7754 14.3592 -5845.1289
v  -6183.7754 -105.0909 -5845.1289
v  -6169.1309 14.3592 -5809.7734
v  -6169.1309 -105.0909 -5809.7734
v  -6212.4551 142.6466 -5859.7734
v  -6183.7754 142.6490 -5845.1289
v  -6169.1309 142.6490 -5809.7734
v  -6212.4551 155.9349 -5859.7734
v  -6183.7754 155.9379 -5845.1289
v  -6169.1309 155.9379 -5809.7734
v  -6212.4551 244.8911 -5859.7734
v  -6183.7754 244.9091 -5845.1289
v  -6169.1309 244.9091 -5809.7734
v  -6148.5093 155.9379 -5809.7734
v  -6148.5093 152.5792 -5809.7734
v  -6148.5093 244.9091 -5809.7734
v  -6216.7979 251.2817 -5859.6187
v  -6183.7754 251.4836 -5845.1289
v  -6169.1309 251.4836 -5809.7734
v  -6225.8066 -105.0909 -5859.7734
v  -6254.4863 -105.0909 -5845.1289
v  -6254.4863 14.3592 -5845.1289
v  -6225.8066 14.3594 -5859.7734
v  -6269.1309 -105.0909 -5809.7734
v  -6269.1309 14.3592 -5809.7734
v  -6254.4863 142.6490 -5845.1289
v  -6225.8066 142.6466 -5859.7734
v  -6269.1309 142.6490 -5809.7734
v  -6254.4863 155.9379 -5845.1289
v  -6225.8066 155.9349 -5859.7734
v  -6269.1309 155.9379 -5809.7734
v  -6254.4863 244.9091 -5845.1289
v  -6225.8066 244.8911 -5859.7734
v  -6269.1309 244.9091 -5809.7734
v  -6289.7070 152.5792 -5809.7734
v  -6289.7070 155.9379 -5809.7734
v  -6289.7070 244.9091 -5809.7734
v  -6254.4863 251.4836 -5845.1289
v  -6221.7183 251.2817 -5859.7734
v  -6269.1309 251.4836 -5809.7734
v  -6215.1470 -126.9571 -5775.8926
v  -6198.0308 -126.9571 -5784.6323
v  -6189.2905 -126.9571 -5805.7324
v  -6240.2310 -126.9571 -5784.6323
v  -6223.1147 -126.9571 -5775.8926
v  -6248.9712 -126.9571 -5805.7324
v  -6198.0308 -126.9571 -5829.8530
v  -6215.1470 -126.9571 -5838.5933
v  -6189.2905 -126.9571 -5808.7529
v  -6223.1147 -126.9571 -5838.5933
v  -6240.2310 -126.9571 -5829.8530
v  -6248.9712 -126.9571 -5808.7529
v  -6215.8887 -126.9571 -5781.7300
v  -6201.9595 -126.9571 -5788.8428
v  -6194.8472 -126.9571 -5806.0137
v  -6236.3022 -126.9571 -5788.8428
v  -6222.3730 -126.9571 -5781.7300
v  -6243.4146 -126.9571 -5806.0137
v  -6201.9595 -126.9571 -5825.6431
v  -6215.8887 -126.9571 -5832.7554
v  -6194.8472 -126.9571 -5808.4717
v  -6222.3730 -126.9571 -5832.7554
v  -6236.3022 -126.9571 -5825.6431
v  -6243.4146 -126.9571 -5808.4717
v  -6215.8887 14.3621 -5781.7300
v  -6215.8887 142.6549 -5781.7300
v  -6215.8887 155.9454 -5781.7300
v  -6215.8887 244.9032 -5781.7300
v  -6216.3301 251.2817 -5782.2173
v  -6202.2959 251.0797 -5788.8428
v  -6195.3228 251.0797 -5806.0137
v  -6235.9658 251.0797 -5789.1909
v  -6221.2725 251.2817 -5782.1025
v  -6222.3730 244.9032 -5781.7300
v  -6222.3730 155.9454 -5781.7300
v  -6222.3730 142.6549 -5781.7300
v  -6222.3730 14.3621 -5781.7300
v  -6242.9390 251.0797 -5806.0137
v  -6201.9595 251.0797 -5825.2705
v  -6216.7979 251.2817 -5832.0894
v  -6215.8887 244.8911 -5832.7554
v  -6215.8887 155.9349 -5832.7554
v  -6215.8887 142.6466 -5832.7554
v  -6215.8887 14.3594 -5832.7554
v  -6195.3228 251.0797 -5808.4355
v  -6222.3730 14.3594 -5832.7554
v  -6222.3730 142.6466 -5832.7554
v  -6222.3730 155.9349 -5832.7554
v  -6222.3730 244.8911 -5832.7554
v  -6221.7183 251.2817 -5832.2441
v  -6235.9658 251.0797 -5825.2705
v  -6242.9390 251.0797 -5808.4717
v  -6163.1763 251.4836 -5747.3101
v  -6216.3301 251.2817 -5736.2041
v  -6146.8652 251.4836 -5803.2651
v  -6221.2725 251.2817 -5735.8965
v  -6275.0854 251.4836 -5747.3101
v  -6293.0171 251.4836 -5803.2651
v  -6216.7979 251.2817 -5877.7363
v  -6163.1763 251.4836 -5867.2295
v  -6146.8652 251.4836 -5811.2749
v  -6275.0854 251.4836 -5867.2295
v  -6221.7183 251.2817 -5877.8911
v  -6293.0171 251.4836 -5811.2749
v  -6163.1763 261.3303 -5747.3101
v  -6216.3301 261.1284 -5736.2041
v  -6146.8652 261.3303 -5803.2651
v  -6221.2725 261.1284 -5735.8965
v  -6275.0854 261.3303 -5747.3101
v  -6293.0171 261.3303 -5803.2651
v  -6216.7979 261.1284 -5877.7363
v  -6163.1763 261.3303 -5867.2295
v  -6146.8652 261.3303 -5811.2749
v  -6275.0854 261.3303 -5867.2295
v  -6221.7183 261.1284 -5877.8911
v  -6293.0171 261.3303 -5811.2749
v  -6202.2959 261.3303 -5789.5391
v  -6216.3301 261.1284 -5782.2173
v  -6216.3301 261.1284 -5754.4224
v  -6195.3228 261.3303 -5806.0376
v  -6221.2725 261.1284 -5754.0571
v  -6221.2725 261.1284 -5782.1025
v  -6235.9658 261.3303 -5789.1909
v  -6242.9390 261.3303 -5806.0376
v  -6216.7979 261.1284 -5859.4175
v  -6216.7979 261.1284 -5832.0894
v  -6202.6318 261.3303 -5825.2705
v  -6195.3228 261.3303 -5808.4355
v  -6235.9658 261.3303 -5825.2705
v  -6221.7183 261.1284 -5832.2441
v  -6221.7183 261.1284 -5860.1743
v  -6242.9390 261.3303 -5808.3994
v  -6243.4146 260.9264 -5805.2979
v  -6243.4146 260.9264 -5809.1880
v  -6243.4146 260.9264 -5807.8164
v  -6243.4146 260.9264 -5806.6694
# 180 vertices

vn 0.2148 -0.3578 0.9087
vn 0.6869 -0.3461 0.6390
vn 0.7346 0.0000 0.6785
vn -0.0270 0.3015 0.9531
vn 0.9204 -0.3477 0.1788
vn 0.9808 0.0000 0.1951
vn -0.4671 0.0000 0.8842
vn 0.8843 -0.2428 0.3987
vn 0.5556 0.0000 0.8315
vn -0.3267 -0.0866 0.9412
vn 0.8144 0.2860 0.5049
vn 0.6744 -0.4238 0.6047
vn 0.7071 0.0000 0.7071
vn 0.5774 0.5774 0.5774
vn 0.4343 -0.7997 0.4145
vn -0.8248 -0.5305 0.1955
vn 0.6445 -0.7538 0.1282
vn -0.2148 -0.3578 0.9087
vn 0.0270 0.3015 0.9531
vn -0.7346 0.0000 0.6785
vn -0.6869 -0.3461 0.6390
vn -0.9808 0.0000 0.1951
vn -0.9204 -0.3477 0.1788
vn 0.4671 0.0000 0.8842
vn -0.8845 -0.2427 0.3986
vn 0.4678 -0.0027 0.8838
vn -0.5556 0.0000 0.8315
vn 0.2982 -0.0654 0.9523
vn -0.7397 0.0000 0.6729
vn -0.8144 0.2860 0.5049
vn -0.7071 0.0000 0.7071
vn -0.6745 -0.4234 0.6048
vn -0.5774 0.5774 0.5774
vn 0.8210 -0.5409 0.1827
vn -0.4348 -0.7995 0.4144
vn -0.6445 -0.7538 0.1282
vn 0.2148 -0.3578 -0.9087
vn -0.0270 0.3014 -0.9531
vn 0.7346 0.0000 -0.6785
vn 0.6869 -0.3461 -0.6390
vn 0.9808 0.0000 -0.1951
vn 0.9204 -0.3477 -0.1788
vn -0.4672 0.0000 -0.8841
vn 0.8843 -0.2428 -0.3987
vn 0.5556 0.0000 -0.8315
vn -0.3139 -0.0461 -0.9484
vn 0.8144 0.2860 -0.5049
vn 0.7071 0.0000 -0.7071
vn 0.6744 -0.4238 -0.6047
vn 0.5774 0.5774 -0.5774
vn -0.8277 -0.5288 -0.1880
vn 0.4287 -0.8019 -0.4161
vn 0.6445 -0.7538 -0.1282
vn -0.2148 -0.3578 -0.9087
vn -0.6869 -0.3461 -0.6390
vn -0.7346 0.0000 -0.6785
vn 0.0270 0.3014 -0.9531
vn -0.9204 -0.3477 -0.1788
vn -0.9808 0.0000 -0.1951
vn 0.4672 0.0000 -0.8841
vn -0.8845 -0.2427 -0.3986
vn -0.5556 0.0000 -0.8315
vn 0.3210 -0.0608 -0.9451
vn -0.8144 0.2860 -0.5049
vn -0.6745 -0.4234 -0.6048
vn -0.7071 0.0000 -0.7071
vn -0.5774 0.5774 -0.5774
vn -0.4310 -0.8010 -0.4154
vn 0.8276 -0.5272 -0.1926
vn -0.6445 -0.7538 -0.1282
vn 0.1080 -0.8993 0.4238
vn 0.3450 -0.8862 0.3094
vn 0.4347 -0.8958 0.0928
vn -0.3450 -0.8862 0.3094
vn -0.1080 -0.8993 0.4238
vn -0.4347 -0.8958 0.0928
vn 0.3450 -0.8862 -0.3094
vn 0.1080 -0.8993 -0.4238
vn 0.4347 -0.8958 -0.0928
vn -0.1080 -0.8993 -0.4238
vn -0.3450 -0.8862 -0.3094
vn -0.4347 -0.8958 -0.0928
vn -0.1509 -0.7638 -0.6276
vn -0.4467 -0.7940 -0.4124
vn -0.6441 -0.7542 -0.1281
vn 0.4464 -0.7942 -0.4123
vn 0.1510 -0.7637 -0.6277
vn 0.6441 -0.7542 -0.1281
vn -0.4465 -0.7940 0.4125
vn -0.1510 -0.7637 0.6276
vn -0.6441 -0.7542 0.1281
vn 0.1510 -0.7637 0.6276
vn 0.4464 -0.7942 0.4123
vn 0.6441 -0.7542 0.1281
vn -0.5550 0.3134 -0.7705
vn -0.8852 -0.0006 -0.4652
vn -0.8853 -0.0006 -0.4651
vn -0.9122 -0.0163 0.4094
vn -0.8415 -0.0485 -0.5381
vn -0.7224 -0.0237 -0.6910
vn -0.9814 -0.0008 -0.1918
vn 0.7268 -0.0006 -0.6868
vn 0.8473 -0.0851 -0.5242
vn 0.7889 -0.0511 0.6125
vn 0.8875 -0.0011 -0.4609
vn 0.8875 -0.0011 -0.4608
vn 0.5597 0.3128 -0.7674
vn 0.9807 -0.0008 -0.1954
vn -0.7298 -0.0242 0.6832
vn -0.8382 -0.0842 0.5388
vn -0.8707 -0.0375 -0.4904
vn -0.8865 -0.0011 0.4628
vn -0.5577 0.3129 0.7688
vn -0.9824 -0.0006 0.1867
vn 0.5601 0.3128 0.7671
vn 0.8877 -0.0010 0.4605
vn 0.8759 -0.0263 -0.4818
vn 0.8458 -0.0627 0.5298
vn 0.7286 -0.0007 0.6849
vn 0.9806 -0.0013 0.1959
vn 0.5402 -0.6071 0.5828
vn -0.5185 -0.5684 0.6388
vn 0.7289 -0.6766 0.1041
vn 0.5176 -0.5682 0.6397
vn -0.5322 -0.6093 0.5879
vn -0.7299 -0.6740 0.1141
vn -0.5223 -0.5689 -0.6353
vn 0.5370 -0.6062 -0.5866
vn 0.7289 -0.6766 -0.1041
vn -0.5292 -0.6084 -0.5915
vn 0.5212 -0.5688 -0.6363
vn -0.7299 -0.6739 -0.1141
vn 0.5386 0.6080 0.5833
vn -0.5202 0.5662 0.6394
vn 0.7289 0.6766 0.1041
vn 0.5193 0.5661 0.6402
vn -0.5306 0.6102 0.5884
vn -0.7299 0.6740 0.1141
vn -0.5239 0.5668 -0.6358
vn 0.5354 0.6071 -0.5871
vn 0.7289 0.6766 -0.1041
vn -0.5276 0.6093 -0.5920
vn 0.5228 0.5666 -0.6369
vn -0.7299 0.6739 -0.1141
vn -0.4692 0.7793 -0.4155
vn -0.6843 0.6018 -0.4118
vn -0.7090 0.7052 0.0017
vn -0.6432 0.7545 -0.1302
vn 0.7090 0.7052 0.0016
vn 0.6789 0.5998 -0.4234
vn 0.4424 0.7978 -0.4097
vn 0.6448 0.7536 -0.1280
vn -0.7090 0.7052 -0.0017
vn -0.6789 0.5996 0.4237
vn -0.4490 0.7820 0.4322
vn -0.6410 0.7559 0.1332
vn 0.4443 0.7971 0.4088
vn 0.6800 0.6001 0.4213
vn 0.7090 0.7052 -0.0017
vn 0.6453 0.7532 0.1275
vn 0.0000 -1.0000 -0.0000
# 161 vertex normals

vt 0.5000 0.0000 1.0000
vt 0.6250 0.0000 1.0000
vt 0.6250 0.3413 1.0000
vt 0.5000 0.3413 1.0000
vt 0.7500 0.0000 1.0000
vt 0.7500 0.3413 1.0000
vt 0.6250 0.7078 1.0000
vt 0.5000 0.7078 1.0000
vt 0.7500 0.7078 1.0000
vt 0.6250 0.7458 1.0000
vt 0.5000 0.7458 1.0000
vt 0.7500 0.7458 1.0000
vt 0.6250 1.0000 1.0000
vt 0.5000 1.0000 1.0000
vt 0.7500 1.0000 1.0000
# 15 texture coords

o Cylinder001
g Cylinder001
usemtl wire_006135058
s 8
f 1/1/1 2/2/2 3/3/3 4/4/4 
f 2/2/2 5/5/5 6/6/6 3/3/3 
f 3/3/3 7/7/3 8/8/7 4/4/4 
f 6/6/6 9/9/8 7/7/3 3/3/3 
f 7/7/3 10/10/3 11/11/7 8/8/7 
f 9/9/8 12/12/9 10/10/3 7/7/3 
f 10/10/3 13/13/3 14/14/10 11/11/7 
f 12/12/9 15/15/11 13/13/3 10/10/3 
s off
f 12/12/9 9/9/8 16/9/12 17/12/13 
f 15/15/11 12/12/9 17/12/13 18/15/14 
f 14/14/10 13/13/3 19/13/15 20/14/16 
f 13/13/3 15/15/11 21/15/17 19/13/15 
s 8
f 22/1/18 23/4/19 24/3/20 25/2/21 
f 25/2/21 24/3/20 26/6/22 27/5/23 
f 24/3/20 23/4/19 28/8/24 29/7/20 
f 26/6/22 24/3/20 29/7/20 30/9/25 
f 29/7/20 28/8/24 31/11/26 32/10/20 
f 30/9/25 29/7/20 32/10/20 33/12/27 
f 32/10/20 31/11/26 34/14/28 35/13/29 
f 33/12/27 32/10/20 35/13/29 36/15/30 
s off
f 33/12/27 37/12/31 38/9/32 30/9/25 
f 36/15/30 39/15/33 37/12/31 33/12/27 
f 34/14/28 40/14/34 41/13/35 35/13/29 
f 35/13/29 41/13/35 42/15/36 36/15/30 
s 8
f 43/1/37 44/4/38 45/3/39 46/2/40 
f 46/2/40 45/3/39 47/6/41 48/5/42 
f 45/3/39 44/4/38 49/8/43 50/7/39 
f 47/6/41 45/3/39 50/7/39 51/9/44 
f 50/7/39 49/8/43 52/11/43 53/10/39 
f 51/9/44 50/7/39 53/10/39 54/12/45 
f 53/10/39 52/11/43 55/14/46 56/13/39 
f 54/12/45 53/10/39 56/13/39 57/15/47 
s off
f 54/12/45 58/12/48 59/9/49 51/9/44 
f 57/15/47 60/15/50 58/12/48 54/12/45 
f 55/14/46 61/14/51 62/13/52 56/13/39 
f 56/13/39 62/13/52 63/15/53 57/15/47 
s 8
f 64/1/54 65/2/55 66/3/56 67/4/57 
f 65/2/55 68/5/58 69/6/59 66/3/56 
f 66/3/56 70/7/56 71/8/60 67/4/57 
f 69/6/59 72/9/61 70/7/56 66/3/56 
f 70/7/56 73/10/56 74/11/60 71/8/60 
f 72/9/61 75/12/62 73/10/56 70/7/56 
f 73/10/56 76/13/56 77/14/63 74/11/60 
f 75/12/62 78/15/64 76/13/56 73/10/56 
s off
f 75/12/62 72/9/61 79/9/65 80/12/66 
f 78/15/64 75/12/62 80/12/66 81/15/67 
f 77/14/63 76/13/56 82/13/68 83/14/69 
f 76/13/56 78/15/64 84/15/70 82/13/68 
s 1
f 23/4/19 22/1/18 1/1/1 4/4/4 
f 64/1/54 67/4/57 44/4/38 43/1/37 
s 2
f 58/12/48 60/15/50 18/9/14 17/15/13 
s 1
f 59/9/49 58/12/48 17/15/13 16/12/12 
s 2
f 51/9/44 59/9/49 16/12/12 9/9/8 
s 1
f 47/6/41 51/9/44 9/9/8 6/6/6 
s 2
f 48/5/42 47/6/41 6/6/6 5/5/5 
s 1
f 69/6/59 68/5/58 27/5/23 26/6/22 
s 2
f 72/9/61 69/6/59 26/6/22 30/9/25 
s 1
f 81/15/67 80/12/66 37/12/31 39/15/33 
s 2
f 80/12/66 79/9/65 38/9/32 37/12/31 
s 1
f 79/9/65 72/9/61 30/9/25 38/9/32 
s 2
f 78/15/64 81/15/67 39/15/33 36/15/30 
s 1
f 84/15/70 78/15/64 36/15/30 42/15/36 
f 60/15/50 57/15/47 15/15/11 18/9/14 
s 2
f 57/15/47 63/15/53 21/13/17 15/15/11 
s off
f 2/2/2 1/1/1 85/1/71 86/2/72 
f 5/5/5 2/2/2 86/2/72 87/5/73 
f 22/1/18 25/2/21 88/2/74 89/1/75 
f 25/2/21 27/5/23 90/5/76 88/2/74 
f 43/1/37 46/2/40 91/2/77 92/1/78 
f 46/2/40 48/5/42 93/5/79 91/2/77 
f 65/2/55 64/1/54 94/1/80 95/2/81 
f 68/5/58 65/2/55 95/2/81 96/5/82 
f 1/1/1 22/1/18 89/1/75 85/1/71 
f 64/1/54 43/1/37 92/1/78 94/1/80 
f 48/5/42 5/5/5 87/5/73 93/5/79 
f 27/5/23 68/5/58 96/5/82 90/5/76 
f 86/2/72 85/1/71 97/1/83 98/2/84 
f 87/5/73 86/2/72 98/2/84 99/5/85 
f 89/1/75 88/2/74 100/2/86 101/1/87 
f 88/2/74 90/5/76 102/5/88 100/2/86 
f 92/1/78 91/2/77 103/2/89 104/1/90 
f 91/2/77 93/5/79 105/5/91 103/2/89 
f 95/2/81 94/1/80 106/1/92 107/2/93 
f 96/5/82 95/2/81 107/2/93 108/5/94 
f 85/1/71 89/1/75 101/1/87 97/1/83 
f 94/1/80 92/1/78 104/1/90 106/1/92 
f 93/5/79 87/5/73 99/5/85 105/5/91 
f 90/5/76 96/5/82 108/5/94 102/5/88 
f 98/2/84 97/1/83 109/1/95 110/1/96 111/1/97 112/1/98 113/1/99 114/2/100 
f 99/5/85 98/2/84 114/2/100 115/5/101 
f 101/1/87 100/2/86 116/2/102 117/1/103 118/1/104 119/1/105 120/1/106 121/1/107 
f 100/2/86 102/5/88 122/5/108 116/2/102 
f 104/1/90 103/2/89 123/2/109 124/1/110 125/1/111 126/1/112 127/1/112 128/1/113 
f 103/2/89 105/5/91 129/5/114 123/2/109 
f 107/2/93 106/1/92 130/1/115 131/1/116 132/1/116 133/1/117 134/1/118 135/2/119 
f 108/5/94 107/2/93 135/2/119 136/5/120 
f 105/5/91 99/5/85 115/5/101 129/5/114 
f 102/5/88 108/5/94 136/5/120 122/5/108 
s 2
f 131/1/116 130/1/115 67/4/57 71/8/60 
f 132/1/116 131/1/116 71/8/60 74/11/60 
f 133/1/117 132/1/116 74/11/60 77/14/63 
f 134/1/118 133/1/117 77/14/63 83/14/69 
f 125/1/111 124/2/110 61/14/51 55/14/46 
f 126/1/112 125/1/111 55/14/46 52/11/43 
f 127/1/112 126/1/112 52/11/43 49/8/43 
f 128/1/113 127/1/112 49/8/43 44/4/38 
s 4
f 128/1/113 44/4/38 67/4/57 130/1/115 
s 2
f 110/1/96 109/1/95 4/4/4 8/8/7 
f 111/1/97 110/1/96 8/8/7 11/11/7 
f 112/1/98 111/1/97 11/11/7 14/14/10 
f 113/2/99 112/1/98 14/14/10 20/14/16 
f 118/1/104 117/2/103 40/14/34 34/14/28 
f 119/1/105 118/1/104 34/14/28 31/11/26 
f 120/1/106 119/1/105 31/11/26 28/8/24 
f 121/1/107 120/1/106 28/8/24 23/4/19 
s 4
f 121/1/107 23/4/19 4/4/4 109/1/95 
s 1
f 128/1/113 130/1/115 106/1/92 104/2/90 
f 121/1/107 109/1/95 97/2/83 101/2/87 
s off
f 20/14/16 19/13/15 137/13/121 138/14/122 
f 19/13/15 21/15/17 139/15/123 137/13/121 
f 41/13/35 40/14/34 140/14/124 141/13/125 
f 42/15/36 41/13/35 141/13/125 142/15/126 
f 62/13/52 61/14/51 143/14/127 144/13/128 
f 63/15/53 62/13/52 144/13/128 145/15/129 
f 83/14/69 82/13/68 146/13/130 147/14/131 
f 82/13/68 84/15/70 148/15/132 146/13/130 
f 84/15/70 42/15/36 142/15/126 148/15/132 
f 21/13/17 63/15/53 145/15/129 139/13/123 
f 138/14/122 137/13/121 149/13/133 150/14/134 
f 137/13/121 139/15/123 151/15/135 149/13/133 
f 141/13/125 140/14/124 152/14/136 153/13/137 
f 142/15/126 141/13/125 153/13/137 154/15/138 
f 144/13/128 143/14/127 155/14/139 156/13/140 
f 145/15/129 144/13/128 156/13/140 157/15/141 
f 147/14/131 146/13/130 158/13/142 159/14/143 
f 146/13/130 148/15/132 160/15/144 158/13/142 
f 148/15/132 142/15/126 154/15/138 160/15/144 
f 139/13/123 145/15/129 157/15/141 151/13/135 
f 150/14/134 149/13/133 161/13/145 162/14/146 163/14/147 
f 149/13/133 151/15/135 164/15/148 161/13/145 
f 153/13/137 152/14/136 165/14/149 166/14/150 167/13/151 
f 154/15/138 153/13/137 167/13/151 168/15/152 
f 156/13/140 155/14/139 169/14/153 170/14/154 171/13/155 
f 157/15/141 156/13/140 171/13/155 172/15/156 
f 159/14/143 158/13/142 173/13/157 174/14/158 175/14/159 
f 158/13/142 160/15/144 176/15/160 173/13/157 
f 160/15/144 154/15/138 168/15/152 176/15/160 
f 151/13/135 157/15/141 172/15/156 164/13/148 
f 177/5/161 178/5/161 179/5/161 180/5/161 
s 1
f 167/14/151 166/15/150 117/2/103 116/1/102 
s 2
f 168/14/152 167/14/151 116/1/102 122/5/108 
s 1
f 176/13/160 168/14/152 122/5/108 136/5/120 
f 173/15/157 176/13/160 136/5/120 135/2/119 
f 174/13/158 173/15/157 135/2/119 134/1/118 
f 171/13/155 170/15/154 124/2/110 123/1/109 
f 172/14/156 171/13/155 123/1/109 129/5/114 
f 164/5/148 172/14/156 129/5/114 115/1/101 
s 4
f 161/13/145 164/5/148 115/1/101 114/5/100 
f 162/5/146 161/13/145 114/5/100 113/2/99 
s 1
f 150/13/134 163/5/147 20/14/16 138/14/122 
s 8
f 163/5/147 162/5/146 113/2/99 20/14/16 
s 1
f 165/13/149 152/14/136 140/13/124 40/14/34 
s 4
f 166/15/150 165/13/149 40/14/34 117/2/103 
s 1
f 169/14/153 155/14/139 143/13/127 61/14/51 
s 4
f 170/15/154 169/14/153 61/14/51 124/2/110 
f 175/5/159 174/13/158 134/1/118 83/14/69 
s 1
f 159/15/143 175/5/159 83/14/69 147/13/131 
# 167 polygons

